<?xml version="1.0" encoding="UTF-8"?>
<svg xmlns="http://www.w3.org/2000/svg" xmlns:xlink="http://www.w3.org/1999/xlink" width="600pt" height="450pt" viewBox="0 0 600 450" version="1.1">
<defs>
<g>
<symbol overflow="visible" id="/unof0gi0-0">
<path style="stroke:none;" d="M 0.59375 2.125 L 0.59375 -8.46875 L 6.59375 -8.46875 L 6.59375 2.125 Z M 1.265625 1.453125 L 5.9375 1.453125 L 5.9375 -7.78125 L 1.265625 -7.78125 Z M 1.265625 1.453125 "/>
</symbol>
<symbol overflow="visible" id="/unof0gi0-1">
<path style="stroke:none;" d="M 1.171875 -8.75 L 2.359375 -8.75 L 2.359375 0 L 1.171875 0 Z M 1.171875 -8.75 "/>
</symbol>
<symbol overflow="visible" id="/unof0gi0-2">
<path style="stroke:none;" d="M 4.9375 -5.5625 C 4.8125 -5.625 4.675781 -5.671875 4.53125 -5.703125 C 4.394531 -5.742188 4.238281 -5.765625 4.0625 -5.765625 C 3.457031 -5.765625 2.988281 -5.566406 2.65625 -5.171875 C 2.332031 -4.773438 2.171875 -4.203125 2.171875 -3.453125 L 2.171875 0 L 1.09375 0 L 1.09375 -6.5625 L 2.171875 -6.5625 L 2.171875 -5.546875 C 2.398438 -5.941406 2.695312 -6.234375 3.0625 -6.421875 C 3.425781 -6.617188 3.867188 -6.71875 4.390625 -6.71875 C 4.460938 -6.71875 4.539062 -6.710938 4.625 -6.703125 C 4.71875 -6.691406 4.816406 -6.675781 4.921875 -6.65625 Z M 4.9375 -5.5625 "/>
</symbol>
<symbol overflow="visible" id="/unof0gi0-3">
<path style="stroke:none;" d="M 1.125 -6.5625 L 2.203125 -6.5625 L 2.203125 0 L 1.125 0 Z M 1.125 -9.125 L 2.203125 -9.125 L 2.203125 -7.75 L 1.125 -7.75 Z M 1.125 -9.125 "/>
</symbol>
<symbol overflow="visible" id="/unof0gi0-4">
<path style="stroke:none;" d="M 3.671875 -5.8125 C 3.097656 -5.8125 2.640625 -5.582031 2.296875 -5.125 C 1.960938 -4.675781 1.796875 -4.0625 1.796875 -3.28125 C 1.796875 -2.488281 1.960938 -1.867188 2.296875 -1.421875 C 2.628906 -0.972656 3.085938 -0.75 3.671875 -0.75 C 4.242188 -0.75 4.695312 -0.972656 5.03125 -1.421875 C 5.375 -1.878906 5.546875 -2.5 5.546875 -3.28125 C 5.546875 -4.050781 5.375 -4.664062 5.03125 -5.125 C 4.695312 -5.582031 4.242188 -5.8125 3.671875 -5.8125 Z M 3.671875 -6.71875 C 4.609375 -6.71875 5.34375 -6.410156 5.875 -5.796875 C 6.414062 -5.191406 6.6875 -4.351562 6.6875 -3.28125 C 6.6875 -2.207031 6.414062 -1.363281 5.875 -0.75 C 5.34375 -0.132812 4.609375 0.171875 3.671875 0.171875 C 2.734375 0.171875 1.992188 -0.132812 1.453125 -0.75 C 0.921875 -1.363281 0.65625 -2.207031 0.65625 -3.28125 C 0.65625 -4.351562 0.921875 -5.191406 1.453125 -5.796875 C 1.992188 -6.410156 2.734375 -6.71875 3.671875 -6.71875 Z M 3.671875 -6.71875 "/>
</symbol>
<symbol overflow="visible" id="/unof0gi0-5">
<path style="stroke:none;" d="M 5.3125 -6.375 L 5.3125 -5.34375 C 5.007812 -5.5 4.691406 -5.613281 4.359375 -5.6875 C 4.035156 -5.769531 3.695312 -5.8125 3.34375 -5.8125 C 2.8125 -5.8125 2.410156 -5.726562 2.140625 -5.5625 C 1.867188 -5.40625 1.734375 -5.160156 1.734375 -4.828125 C 1.734375 -4.578125 1.828125 -4.378906 2.015625 -4.234375 C 2.210938 -4.097656 2.601562 -3.96875 3.1875 -3.84375 L 3.546875 -3.75 C 4.316406 -3.59375 4.863281 -3.363281 5.1875 -3.0625 C 5.507812 -2.757812 5.671875 -2.34375 5.671875 -1.8125 C 5.671875 -1.195312 5.425781 -0.710938 4.9375 -0.359375 C 4.457031 -0.00390625 3.796875 0.171875 2.953125 0.171875 C 2.597656 0.171875 2.226562 0.132812 1.84375 0.0625 C 1.46875 0 1.070312 -0.0976562 0.65625 -0.234375 L 0.65625 -1.359375 C 1.050781 -1.148438 1.441406 -0.992188 1.828125 -0.890625 C 2.210938 -0.785156 2.597656 -0.734375 2.984375 -0.734375 C 3.484375 -0.734375 3.867188 -0.816406 4.140625 -0.984375 C 4.421875 -1.160156 4.5625 -1.410156 4.5625 -1.734375 C 4.5625 -2.023438 4.460938 -2.25 4.265625 -2.40625 C 4.066406 -2.5625 3.632812 -2.710938 2.96875 -2.859375 L 2.59375 -2.9375 C 1.925781 -3.082031 1.441406 -3.300781 1.140625 -3.59375 C 0.847656 -3.882812 0.703125 -4.28125 0.703125 -4.78125 C 0.703125 -5.40625 0.921875 -5.882812 1.359375 -6.21875 C 1.796875 -6.550781 2.414062 -6.71875 3.21875 -6.71875 C 3.613281 -6.71875 3.988281 -6.6875 4.34375 -6.625 C 4.695312 -6.570312 5.019531 -6.488281 5.3125 -6.375 Z M 5.3125 -6.375 "/>
</symbol>
<symbol overflow="visible" id="/unof0gi0-6">
<path style="stroke:none;" d="M 1.484375 -1 L 3.421875 -1 L 3.421875 -7.671875 L 1.3125 -7.25 L 1.3125 -8.328125 L 3.40625 -8.75 L 4.59375 -8.75 L 4.59375 -1 L 6.53125 -1 L 6.53125 0 L 1.484375 0 Z M 1.484375 -1 "/>
</symbol>
<symbol overflow="visible" id="/unof0gi1-0">
<path style="stroke:none;" d="M 0.59375 2.125 L 0.59375 -8.46875 L 6.59375 -8.46875 L 6.59375 2.125 Z M 1.265625 1.453125 L 5.9375 1.453125 L 5.9375 -7.78125 L 1.265625 -7.78125 Z M 1.265625 1.453125 "/>
</symbol>
<symbol overflow="visible" id="/unof0gi1-1">
<path style="stroke:none;" d="M 2.203125 -8.421875 L 2.203125 -6.5625 L 4.421875 -6.5625 L 4.421875 -5.71875 L 2.203125 -5.71875 L 2.203125 -2.15625 C 2.203125 -1.625 2.273438 -1.28125 2.421875 -1.125 C 2.566406 -0.976562 2.863281 -0.90625 3.3125 -0.90625 L 4.421875 -0.90625 L 4.421875 0 L 3.3125 0 C 2.476562 0 1.898438 -0.15625 1.578125 -0.46875 C 1.265625 -0.78125 1.109375 -1.34375 1.109375 -2.15625 L 1.109375 -5.71875 L 0.328125 -5.71875 L 0.328125 -6.5625 L 1.109375 -6.5625 L 1.109375 -8.421875 Z M 2.203125 -8.421875 "/>
</symbol>
<symbol overflow="visible" id="/unof0gi1-2">
<path style="stroke:none;" d="M 6.75 -3.546875 L 6.75 -3.03125 L 1.78125 -3.03125 C 1.832031 -2.28125 2.054688 -1.710938 2.453125 -1.328125 C 2.859375 -0.941406 3.414062 -0.75 4.125 -0.75 C 4.539062 -0.75 4.941406 -0.796875 5.328125 -0.890625 C 5.722656 -0.992188 6.113281 -1.148438 6.5 -1.359375 L 6.5 -0.328125 C 6.101562 -0.171875 5.703125 -0.0507812 5.296875 0.03125 C 4.890625 0.125 4.476562 0.171875 4.0625 0.171875 C 3.019531 0.171875 2.191406 -0.128906 1.578125 -0.734375 C 0.960938 -1.347656 0.65625 -2.175781 0.65625 -3.21875 C 0.65625 -4.289062 0.945312 -5.140625 1.53125 -5.765625 C 2.113281 -6.398438 2.894531 -6.71875 3.875 -6.71875 C 4.757812 -6.71875 5.457031 -6.429688 5.96875 -5.859375 C 6.488281 -5.296875 6.75 -4.523438 6.75 -3.546875 Z M 5.671875 -3.875 C 5.660156 -4.457031 5.492188 -4.925781 5.171875 -5.28125 C 4.847656 -5.632812 4.421875 -5.8125 3.890625 -5.8125 C 3.285156 -5.8125 2.800781 -5.640625 2.4375 -5.296875 C 2.082031 -4.953125 1.878906 -4.472656 1.828125 -3.859375 Z M 5.671875 -3.875 "/>
</symbol>
<symbol overflow="visible" id="/unof0gi1-3">
<path style="stroke:none;" d="M 4.109375 -3.296875 C 3.242188 -3.296875 2.640625 -3.195312 2.296875 -3 C 1.960938 -2.800781 1.796875 -2.460938 1.796875 -1.984375 C 1.796875 -1.597656 1.921875 -1.289062 2.171875 -1.0625 C 2.429688 -0.84375 2.773438 -0.734375 3.203125 -0.734375 C 3.804688 -0.734375 4.285156 -0.941406 4.640625 -1.359375 C 5.003906 -1.785156 5.1875 -2.351562 5.1875 -3.0625 L 5.1875 -3.296875 Z M 6.265625 -3.75 L 6.265625 0 L 5.1875 0 L 5.1875 -1 C 4.9375 -0.601562 4.628906 -0.304688 4.265625 -0.109375 C 3.898438 0.078125 3.453125 0.171875 2.921875 0.171875 C 2.242188 0.171875 1.707031 -0.015625 1.3125 -0.390625 C 0.914062 -0.773438 0.71875 -1.28125 0.71875 -1.90625 C 0.71875 -2.644531 0.960938 -3.203125 1.453125 -3.578125 C 1.953125 -3.953125 2.691406 -4.140625 3.671875 -4.140625 L 5.1875 -4.140625 L 5.1875 -4.25 C 5.1875 -4.75 5.019531 -5.132812 4.6875 -5.40625 C 4.363281 -5.675781 3.910156 -5.8125 3.328125 -5.8125 C 2.953125 -5.8125 2.582031 -5.765625 2.21875 -5.671875 C 1.863281 -5.578125 1.523438 -5.441406 1.203125 -5.265625 L 1.203125 -6.265625 C 1.597656 -6.421875 1.976562 -6.535156 2.34375 -6.609375 C 2.71875 -6.679688 3.082031 -6.71875 3.4375 -6.71875 C 4.382812 -6.71875 5.09375 -6.472656 5.5625 -5.984375 C 6.03125 -5.492188 6.265625 -4.75 6.265625 -3.75 Z M 6.265625 -3.75 "/>
</symbol>
<symbol overflow="visible" id="/unof0gi2-0">
<path style="stroke:none;" d="M 0.59375 2.125 L 0.59375 -8.46875 L 6.59375 -8.46875 L 6.59375 2.125 Z M 1.265625 1.453125 L 5.9375 1.453125 L 5.9375 -7.78125 L 1.265625 -7.78125 Z M 1.265625 1.453125 "/>
</symbol>
<symbol overflow="visible" id="/unof0gi2-1">
<path style="stroke:none;" d="M 2.203125 -8.421875 L 2.203125 -6.5625 L 4.421875 -6.5625 L 4.421875 -5.71875 L 2.203125 -5.71875 L 2.203125 -2.15625 C 2.203125 -1.625 2.273438 -1.28125 2.421875 -1.125 C 2.566406 -0.976562 2.863281 -0.90625 3.3125 -0.90625 L 4.421875 -0.90625 L 4.421875 0 L 3.3125 0 C 2.476562 0 1.898438 -0.15625 1.578125 -0.46875 C 1.265625 -0.78125 1.109375 -1.34375 1.109375 -2.15625 L 1.109375 -5.71875 L 0.328125 -5.71875 L 0.328125 -6.5625 L 1.109375 -6.5625 L 1.109375 -8.421875 Z M 2.203125 -8.421875 "/>
</symbol>
<symbol overflow="visible" id="/unof0gi2-2">
<path style="stroke:none;" d="M 6.59375 -3.96875 L 6.59375 0 L 5.515625 0 L 5.515625 -3.921875 C 5.515625 -4.546875 5.390625 -5.007812 5.140625 -5.3125 C 4.898438 -5.625 4.539062 -5.78125 4.0625 -5.78125 C 3.476562 -5.78125 3.015625 -5.59375 2.671875 -5.21875 C 2.335938 -4.851562 2.171875 -4.347656 2.171875 -3.703125 L 2.171875 0 L 1.09375 0 L 1.09375 -6.5625 L 2.171875 -6.5625 L 2.171875 -5.546875 C 2.429688 -5.941406 2.734375 -6.234375 3.078125 -6.421875 C 3.429688 -6.617188 3.835938 -6.71875 4.296875 -6.71875 C 5.046875 -6.71875 5.613281 -6.484375 6 -6.015625 C 6.394531 -5.554688 6.59375 -4.875 6.59375 -3.96875 Z M 6.59375 -3.96875 "/>
</symbol>
<symbol overflow="visible" id="/unof0gi2-3">
<path style="stroke:none;" d="M 3.96875 -4.84375 C 3.4375 -4.84375 3.015625 -4.660156 2.703125 -4.296875 C 2.390625 -3.929688 2.234375 -3.4375 2.234375 -2.8125 C 2.234375 -2.175781 2.390625 -1.675781 2.703125 -1.3125 C 3.015625 -0.945312 3.4375 -0.765625 3.96875 -0.765625 C 4.5 -0.765625 4.914062 -0.945312 5.21875 -1.3125 C 5.53125 -1.675781 5.6875 -2.175781 5.6875 -2.8125 C 5.6875 -3.4375 5.53125 -3.929688 5.21875 -4.296875 C 4.914062 -4.660156 4.5 -4.84375 3.96875 -4.84375 Z M 6.3125 -8.5625 L 6.3125 -7.484375 C 6.007812 -7.617188 5.707031 -7.722656 5.40625 -7.796875 C 5.101562 -7.867188 4.804688 -7.90625 4.515625 -7.90625 C 3.734375 -7.90625 3.132812 -7.640625 2.71875 -7.109375 C 2.3125 -6.585938 2.078125 -5.796875 2.015625 -4.734375 C 2.242188 -5.066406 2.53125 -5.320312 2.875 -5.5 C 3.226562 -5.6875 3.613281 -5.78125 4.03125 -5.78125 C 4.90625 -5.78125 5.597656 -5.515625 6.109375 -4.984375 C 6.617188 -4.453125 6.875 -3.726562 6.875 -2.8125 C 6.875 -1.90625 6.609375 -1.179688 6.078125 -0.640625 C 5.546875 -0.0976562 4.84375 0.171875 3.96875 0.171875 C 2.945312 0.171875 2.171875 -0.210938 1.640625 -0.984375 C 1.109375 -1.765625 0.84375 -2.890625 0.84375 -4.359375 C 0.84375 -5.742188 1.171875 -6.847656 1.828125 -7.671875 C 2.484375 -8.492188 3.363281 -8.90625 4.46875 -8.90625 C 4.757812 -8.90625 5.054688 -8.875 5.359375 -8.8125 C 5.660156 -8.757812 5.976562 -8.675781 6.3125 -8.5625 Z M 6.3125 -8.5625 "/>
</symbol>
<symbol overflow="visible" id="/unof0gi2-4">
<path style="stroke:none;" d="M 1.28125 -1.484375 L 2.515625 -1.484375 L 2.515625 0 L 1.28125 0 Z M 1.28125 -1.484375 "/>
</symbol>
<symbol overflow="visible" id="/unof0gi2-5">
<path style="stroke:none;" d="M 3.8125 -7.96875 C 3.207031 -7.96875 2.75 -7.664062 2.4375 -7.0625 C 2.132812 -6.46875 1.984375 -5.566406 1.984375 -4.359375 C 1.984375 -3.160156 2.132812 -2.257812 2.4375 -1.65625 C 2.75 -1.0625 3.207031 -0.765625 3.8125 -0.765625 C 4.425781 -0.765625 4.882812 -1.0625 5.1875 -1.65625 C 5.5 -2.257812 5.65625 -3.160156 5.65625 -4.359375 C 5.65625 -5.566406 5.5 -6.46875 5.1875 -7.0625 C 4.882812 -7.664062 4.425781 -7.96875 3.8125 -7.96875 Z M 3.8125 -8.90625 C 4.789062 -8.90625 5.539062 -8.515625 6.0625 -7.734375 C 6.582031 -6.960938 6.84375 -5.835938 6.84375 -4.359375 C 6.84375 -2.890625 6.582031 -1.765625 6.0625 -0.984375 C 5.539062 -0.210938 4.789062 0.171875 3.8125 0.171875 C 2.832031 0.171875 2.082031 -0.210938 1.5625 -0.984375 C 1.050781 -1.765625 0.796875 -2.890625 0.796875 -4.359375 C 0.796875 -5.835938 1.050781 -6.960938 1.5625 -7.734375 C 2.082031 -8.515625 2.832031 -8.90625 3.8125 -8.90625 Z M 3.8125 -8.90625 "/>
</symbol>
<symbol overflow="visible" id="/unof0gi2-6">
<path style="stroke:none;" d="M 8.421875 -6.453125 L 5.734375 -3.75 L 8.421875 -1.078125 L 7.71875 -0.375 L 5.03125 -3.0625 L 2.34375 -0.375 L 1.640625 -1.078125 L 4.3125 -3.75 L 1.640625 -6.453125 L 2.34375 -7.15625 L 5.03125 -4.46875 L 7.71875 -7.15625 Z M 8.421875 -6.453125 "/>
</symbol>
<symbol overflow="visible" id="/unof0gi2-7">
<path style="stroke:none;" d="M 3.078125 -6.5625 C 3.429688 -6.488281 3.707031 -6.34375 3.90625 -6.125 C 4.101562 -5.914062 4.203125 -5.65625 4.203125 -5.34375 C 4.203125 -4.851562 4.015625 -4.476562 3.640625 -4.21875 C 3.273438 -3.957031 2.742188 -3.828125 2.046875 -3.828125 C 1.828125 -3.828125 1.59375 -3.847656 1.34375 -3.890625 C 1.101562 -3.929688 0.847656 -3.988281 0.578125 -4.0625 L 0.578125 -4.78125 C 0.773438 -4.675781 0.988281 -4.597656 1.21875 -4.546875 C 1.457031 -4.492188 1.707031 -4.46875 1.96875 -4.46875 C 2.394531 -4.46875 2.722656 -4.539062 2.953125 -4.6875 C 3.191406 -4.84375 3.3125 -5.0625 3.3125 -5.34375 C 3.3125 -5.625 3.203125 -5.835938 2.984375 -5.984375 C 2.765625 -6.140625 2.445312 -6.21875 2.03125 -6.21875 L 1.53125 -6.21875 L 1.53125 -6.84375 L 2.078125 -6.84375 C 2.441406 -6.84375 2.71875 -6.90625 2.90625 -7.03125 C 3.09375 -7.15625 3.1875 -7.335938 3.1875 -7.578125 C 3.1875 -7.796875 3.085938 -7.960938 2.890625 -8.078125 C 2.703125 -8.203125 2.421875 -8.265625 2.046875 -8.265625 C 1.890625 -8.265625 1.710938 -8.242188 1.515625 -8.203125 C 1.316406 -8.171875 1.0625 -8.113281 0.75 -8.03125 L 0.75 -8.703125 C 1.03125 -8.765625 1.296875 -8.8125 1.546875 -8.84375 C 1.796875 -8.882812 2.03125 -8.90625 2.25 -8.90625 C 2.8125 -8.90625 3.253906 -8.789062 3.578125 -8.5625 C 3.910156 -8.332031 4.078125 -8.023438 4.078125 -7.640625 C 4.078125 -7.367188 3.988281 -7.140625 3.8125 -6.953125 C 3.632812 -6.765625 3.390625 -6.632812 3.078125 -6.5625 Z M 3.078125 -6.5625 "/>
</symbol>
<symbol overflow="visible" id="/unof0gi2-8">
<path style="stroke:none;" d="M 1.484375 -1 L 3.421875 -1 L 3.421875 -7.671875 L 1.3125 -7.25 L 1.3125 -8.328125 L 3.40625 -8.75 L 4.59375 -8.75 L 4.59375 -1 L 6.53125 -1 L 6.53125 0 L 1.484375 0 Z M 1.484375 -1 "/>
</symbol>
<symbol overflow="visible" id="/unof0gi2-9">
<path style="stroke:none;" d="M 2.296875 -1 L 6.4375 -1 L 6.4375 0 L 0.875 0 L 0.875 -1 C 1.320312 -1.457031 1.929688 -2.078125 2.703125 -2.859375 C 3.484375 -3.648438 3.972656 -4.160156 4.171875 -4.390625 C 4.554688 -4.804688 4.820312 -5.160156 4.96875 -5.453125 C 5.125 -5.753906 5.203125 -6.046875 5.203125 -6.328125 C 5.203125 -6.796875 5.035156 -7.175781 4.703125 -7.46875 C 4.378906 -7.757812 3.957031 -7.90625 3.4375 -7.90625 C 3.0625 -7.90625 2.664062 -7.84375 2.25 -7.71875 C 1.84375 -7.59375 1.40625 -7.394531 0.9375 -7.125 L 0.9375 -8.328125 C 1.414062 -8.515625 1.859375 -8.65625 2.265625 -8.75 C 2.679688 -8.851562 3.0625 -8.90625 3.40625 -8.90625 C 4.3125 -8.90625 5.035156 -8.675781 5.578125 -8.21875 C 6.117188 -7.769531 6.390625 -7.164062 6.390625 -6.40625 C 6.390625 -6.050781 6.320312 -5.710938 6.1875 -5.390625 C 6.050781 -5.066406 5.804688 -4.6875 5.453125 -4.25 C 5.347656 -4.132812 5.035156 -3.804688 4.515625 -3.265625 C 3.992188 -2.722656 3.253906 -1.96875 2.296875 -1 Z M 2.296875 -1 "/>
</symbol>
<symbol overflow="visible" id="/unof0gi2-10">
<path style="stroke:none;" d="M 2.796875 -8.09375 L 0.984375 -5.640625 L 2.796875 -5.640625 Z M 2.671875 -8.8125 L 3.640625 -8.8125 L 3.640625 -5.640625 L 4.4375 -5.640625 L 4.4375 -5 L 3.640625 -5 L 3.640625 -3.921875 L 2.796875 -3.921875 L 2.796875 -5 L 0.375 -5 L 0.375 -5.71875 Z M 2.671875 -8.8125 "/>
</symbol>
<symbol overflow="visible" id="/unof0gi3-0">
<path style="stroke:none;" d="M 0.59375 2.125 L 0.59375 -8.46875 L 6.59375 -8.46875 L 6.59375 2.125 Z M 1.265625 1.453125 L 5.9375 1.453125 L 5.9375 -7.78125 L 1.265625 -7.78125 Z M 1.265625 1.453125 "/>
</symbol>
<symbol overflow="visible" id="/unof0gi3-1">
<path style="stroke:none;" d="M 3.8125 -7.96875 C 3.207031 -7.96875 2.75 -7.664062 2.4375 -7.0625 C 2.132812 -6.46875 1.984375 -5.566406 1.984375 -4.359375 C 1.984375 -3.160156 2.132812 -2.257812 2.4375 -1.65625 C 2.75 -1.0625 3.207031 -0.765625 3.8125 -0.765625 C 4.425781 -0.765625 4.882812 -1.0625 5.1875 -1.65625 C 5.5 -2.257812 5.65625 -3.160156 5.65625 -4.359375 C 5.65625 -5.566406 5.5 -6.46875 5.1875 -7.0625 C 4.882812 -7.664062 4.425781 -7.96875 3.8125 -7.96875 Z M 3.8125 -8.90625 C 4.789062 -8.90625 5.539062 -8.515625 6.0625 -7.734375 C 6.582031 -6.960938 6.84375 -5.835938 6.84375 -4.359375 C 6.84375 -2.890625 6.582031 -1.765625 6.0625 -0.984375 C 5.539062 -0.210938 4.789062 0.171875 3.8125 0.171875 C 2.832031 0.171875 2.082031 -0.210938 1.5625 -0.984375 C 1.050781 -1.765625 0.796875 -2.890625 0.796875 -4.359375 C 0.796875 -5.835938 1.050781 -6.960938 1.5625 -7.734375 C 2.082031 -8.515625 2.832031 -8.90625 3.8125 -8.90625 Z M 3.8125 -8.90625 "/>
</symbol>
<symbol overflow="visible" id="/unof0gi4-0">
<path style="stroke:none;" d="M 0.59375 2.125 L 0.59375 -8.46875 L 6.59375 -8.46875 L 6.59375 2.125 Z M 1.265625 1.453125 L 5.9375 1.453125 L 5.9375 -7.78125 L 1.265625 -7.78125 Z M 1.265625 1.453125 "/>
</symbol>
<symbol overflow="visible" id="/unof0gi4-1">
<path style="stroke:none;" d="M 1.28125 -1.484375 L 2.515625 -1.484375 L 2.515625 0 L 1.28125 0 Z M 1.28125 -1.484375 "/>
</symbol>
<symbol overflow="visible" id="/unof0gi5-0">
<path style="stroke:none;" d="M 2.125 -0.59375 L -8.46875 -0.59375 L -8.46875 -6.59375 L 2.125 -6.59375 Z M 1.453125 -1.265625 L 1.453125 -5.9375 L -7.78125 -5.9375 L -7.78125 -1.265625 Z M 1.453125 -1.265625 "/>
</symbol>
<symbol overflow="visible" id="/unof0gi5-1">
<path style="stroke:none;" d="M -4.109375 -5.328125 C -4.015625 -5.578125 -3.828125 -5.820312 -3.546875 -6.0625 C -3.265625 -6.300781 -2.878906 -6.546875 -2.390625 -6.796875 L 0 -8 L 0 -6.71875 L -2.25 -5.609375 C -2.832031 -5.316406 -3.21875 -5.035156 -3.40625 -4.765625 C -3.601562 -4.492188 -3.703125 -4.125 -3.703125 -3.65625 L -3.703125 -2.359375 L 0 -2.359375 L 0 -1.171875 L -8.75 -1.171875 L -8.75 -3.84375 C -8.75 -4.84375 -8.539062 -5.585938 -8.125 -6.078125 C -7.707031 -6.578125 -7.078125 -6.828125 -6.234375 -6.828125 C -5.679688 -6.828125 -5.222656 -6.695312 -4.859375 -6.4375 C -4.492188 -6.1875 -4.242188 -5.816406 -4.109375 -5.328125 Z M -7.78125 -2.359375 L -4.671875 -2.359375 L -4.671875 -3.84375 C -4.671875 -4.414062 -4.800781 -4.847656 -5.0625 -5.140625 C -5.332031 -5.429688 -5.722656 -5.578125 -6.234375 -5.578125 C -6.742188 -5.578125 -7.128906 -5.429688 -7.390625 -5.140625 C -7.648438 -4.847656 -7.78125 -4.414062 -7.78125 -3.84375 Z M -7.78125 -2.359375 "/>
</symbol>
<symbol overflow="visible" id="/unof0gi5-2">
<path style="stroke:none;" d="M -8.75 -1.171875 L -8.75 -6.703125 L -7.75 -6.703125 L -7.75 -2.359375 L -5.15625 -2.359375 L -5.15625 -6.53125 L -4.171875 -6.53125 L -4.171875 -2.359375 L -1 -2.359375 L -1 -6.8125 L 0 -6.8125 L 0 -1.171875 Z M -8.75 -1.171875 "/>
</symbol>
<symbol overflow="visible" id="/unof0gi6-0">
<path style="stroke:none;" d="M 2.125 -0.59375 L -8.46875 -0.59375 L -8.46875 -6.59375 L 2.125 -6.59375 Z M 1.453125 -1.265625 L 1.453125 -5.9375 L -7.78125 -5.9375 L -7.78125 -1.265625 Z M 1.453125 -1.265625 "/>
</symbol>
<symbol overflow="visible" id="/unof0gi6-1">
<path style="stroke:none;" d="M -8.75 -1.171875 L -8.75 -2.9375 L -2.796875 -5.171875 L -8.75 -7.421875 L -8.75 -9.1875 L 0 -9.1875 L 0 -8.03125 L -7.6875 -8.03125 L -1.6875 -5.765625 L -1.6875 -4.578125 L -7.6875 -2.328125 L 0 -2.328125 L 0 -1.171875 Z M -8.75 -1.171875 "/>
</symbol>
<symbol overflow="visible" id="/unof0gi6-2">
<path style="stroke:none;" d="M -8.46875 -6.421875 L -7.3125 -6.421875 C -7.519531 -5.972656 -7.675781 -5.546875 -7.78125 -5.140625 C -7.894531 -4.742188 -7.953125 -4.363281 -7.953125 -4 C -7.953125 -3.351562 -7.828125 -2.851562 -7.578125 -2.5 C -7.328125 -2.15625 -6.96875 -1.984375 -6.5 -1.984375 C -6.113281 -1.984375 -5.820312 -2.097656 -5.625 -2.328125 C -5.425781 -2.554688 -5.269531 -3 -5.15625 -3.65625 L -5 -4.359375 C -4.832031 -5.242188 -4.535156 -5.894531 -4.109375 -6.3125 C -3.691406 -6.738281 -3.128906 -6.953125 -2.421875 -6.953125 C -1.566406 -6.953125 -0.921875 -6.664062 -0.484375 -6.09375 C -0.046875 -5.53125 0.171875 -4.695312 0.171875 -3.59375 C 0.171875 -3.1875 0.125 -2.75 0.03125 -2.28125 C -0.0625 -1.8125 -0.203125 -1.328125 -0.390625 -0.828125 L -1.609375 -0.828125 C -1.335938 -1.304688 -1.132812 -1.773438 -1 -2.234375 C -0.863281 -2.703125 -0.796875 -3.15625 -0.796875 -3.59375 C -0.796875 -4.269531 -0.925781 -4.789062 -1.1875 -5.15625 C -1.457031 -5.53125 -1.835938 -5.71875 -2.328125 -5.71875 C -2.753906 -5.71875 -3.085938 -5.582031 -3.328125 -5.3125 C -3.578125 -5.050781 -3.757812 -4.617188 -3.875 -4.015625 L -4.015625 -3.296875 C -4.191406 -2.410156 -4.46875 -1.769531 -4.84375 -1.375 C -5.21875 -0.988281 -5.738281 -0.796875 -6.40625 -0.796875 C -7.1875 -0.796875 -7.796875 -1.066406 -8.234375 -1.609375 C -8.679688 -2.148438 -8.90625 -2.898438 -8.90625 -3.859375 C -8.90625 -4.273438 -8.867188 -4.691406 -8.796875 -5.109375 C -8.722656 -5.535156 -8.613281 -5.972656 -8.46875 -6.421875 Z M -8.46875 -6.421875 "/>
</symbol>
<symbol overflow="visible" id="/unof0gi7-0">
<path style="stroke:none;" d="M 0.59375 2.125 L 0.59375 -8.46875 L 6.59375 -8.46875 L 6.59375 2.125 Z M 1.265625 1.453125 L 5.9375 1.453125 L 5.9375 -7.78125 L 1.265625 -7.78125 Z M 1.265625 1.453125 "/>
</symbol>
<symbol overflow="visible" id="/unof0gi7-1">
<path style="stroke:none;" d="M 3.8125 -7.96875 C 3.207031 -7.96875 2.75 -7.664062 2.4375 -7.0625 C 2.132812 -6.46875 1.984375 -5.566406 1.984375 -4.359375 C 1.984375 -3.160156 2.132812 -2.257812 2.4375 -1.65625 C 2.75 -1.0625 3.207031 -0.765625 3.8125 -0.765625 C 4.425781 -0.765625 4.882812 -1.0625 5.1875 -1.65625 C 5.5 -2.257812 5.65625 -3.160156 5.65625 -4.359375 C 5.65625 -5.566406 5.5 -6.46875 5.1875 -7.0625 C 4.882812 -7.664062 4.425781 -7.96875 3.8125 -7.96875 Z M 3.8125 -8.90625 C 4.789062 -8.90625 5.539062 -8.515625 6.0625 -7.734375 C 6.582031 -6.960938 6.84375 -5.835938 6.84375 -4.359375 C 6.84375 -2.890625 6.582031 -1.765625 6.0625 -0.984375 C 5.539062 -0.210938 4.789062 0.171875 3.8125 0.171875 C 2.832031 0.171875 2.082031 -0.210938 1.5625 -0.984375 C 1.050781 -1.765625 0.796875 -2.890625 0.796875 -4.359375 C 0.796875 -5.835938 1.050781 -6.960938 1.5625 -7.734375 C 2.082031 -8.515625 2.832031 -8.90625 3.8125 -8.90625 Z M 3.8125 -8.90625 "/>
</symbol>
<symbol overflow="visible" id="/unof0gi8-0">
<path style="stroke:none;" d="M 0.59375 2.125 L 0.59375 -8.46875 L 6.59375 -8.46875 L 6.59375 2.125 Z M 1.265625 1.453125 L 5.9375 1.453125 L 5.9375 -7.78125 L 1.265625 -7.78125 Z M 1.265625 1.453125 "/>
</symbol>
<symbol overflow="visible" id="/unof0gi8-1">
<path style="stroke:none;" d="M 2.296875 -1 L 6.4375 -1 L 6.4375 0 L 0.875 0 L 0.875 -1 C 1.320312 -1.457031 1.929688 -2.078125 2.703125 -2.859375 C 3.484375 -3.648438 3.972656 -4.160156 4.171875 -4.390625 C 4.554688 -4.804688 4.820312 -5.160156 4.96875 -5.453125 C 5.125 -5.753906 5.203125 -6.046875 5.203125 -6.328125 C 5.203125 -6.796875 5.035156 -7.175781 4.703125 -7.46875 C 4.378906 -7.757812 3.957031 -7.90625 3.4375 -7.90625 C 3.0625 -7.90625 2.664062 -7.84375 2.25 -7.71875 C 1.84375 -7.59375 1.40625 -7.394531 0.9375 -7.125 L 0.9375 -8.328125 C 1.414062 -8.515625 1.859375 -8.65625 2.265625 -8.75 C 2.679688 -8.851562 3.0625 -8.90625 3.40625 -8.90625 C 4.3125 -8.90625 5.035156 -8.675781 5.578125 -8.21875 C 6.117188 -7.769531 6.390625 -7.164062 6.390625 -6.40625 C 6.390625 -6.050781 6.320312 -5.710938 6.1875 -5.390625 C 6.050781 -5.066406 5.804688 -4.6875 5.453125 -4.25 C 5.347656 -4.132812 5.035156 -3.804688 4.515625 -3.265625 C 3.992188 -2.722656 3.253906 -1.96875 2.296875 -1 Z M 2.296875 -1 "/>
</symbol>
<symbol overflow="visible" id="/unof0gi9-0">
<path style="stroke:none;" d="M 0.59375 2.125 L 0.59375 -8.46875 L 6.59375 -8.46875 L 6.59375 2.125 Z M 1.265625 1.453125 L 5.9375 1.453125 L 5.9375 -7.78125 L 1.265625 -7.78125 Z M 1.265625 1.453125 "/>
</symbol>
<symbol overflow="visible" id="/unof0gi9-1">
<path style="stroke:none;" d="M 3.8125 -7.96875 C 3.207031 -7.96875 2.75 -7.664062 2.4375 -7.0625 C 2.132812 -6.46875 1.984375 -5.566406 1.984375 -4.359375 C 1.984375 -3.160156 2.132812 -2.257812 2.4375 -1.65625 C 2.75 -1.0625 3.207031 -0.765625 3.8125 -0.765625 C 4.425781 -0.765625 4.882812 -1.0625 5.1875 -1.65625 C 5.5 -2.257812 5.65625 -3.160156 5.65625 -4.359375 C 5.65625 -5.566406 5.5 -6.46875 5.1875 -7.0625 C 4.882812 -7.664062 4.425781 -7.96875 3.8125 -7.96875 Z M 3.8125 -8.90625 C 4.789062 -8.90625 5.539062 -8.515625 6.0625 -7.734375 C 6.582031 -6.960938 6.84375 -5.835938 6.84375 -4.359375 C 6.84375 -2.890625 6.582031 -1.765625 6.0625 -0.984375 C 5.539062 -0.210938 4.789062 0.171875 3.8125 0.171875 C 2.832031 0.171875 2.082031 -0.210938 1.5625 -0.984375 C 1.050781 -1.765625 0.796875 -2.890625 0.796875 -4.359375 C 0.796875 -5.835938 1.050781 -6.960938 1.5625 -7.734375 C 2.082031 -8.515625 2.832031 -8.90625 3.8125 -8.90625 Z M 3.8125 -8.90625 "/>
</symbol>
<symbol overflow="visible" id="/unof0gi10-0">
<path style="stroke:none;" d="M 0.59375 2.125 L 0.59375 -8.46875 L 6.59375 -8.46875 L 6.59375 2.125 Z M 1.265625 1.453125 L 5.9375 1.453125 L 5.9375 -7.78125 L 1.265625 -7.78125 Z M 1.265625 1.453125 "/>
</symbol>
<symbol overflow="visible" id="/unof0gi10-1">
<path style="stroke:none;" d="M 4.53125 -7.71875 L 1.546875 -3.046875 L 4.53125 -3.046875 Z M 4.21875 -8.75 L 5.71875 -8.75 L 5.71875 -3.046875 L 6.96875 -3.046875 L 6.96875 -2.0625 L 5.71875 -2.0625 L 5.71875 0 L 4.53125 0 L 4.53125 -2.0625 L 0.59375 -2.0625 L 0.59375 -3.203125 Z M 4.21875 -8.75 "/>
</symbol>
<symbol overflow="visible" id="/unof0gi11-0">
<path style="stroke:none;" d="M 0.59375 2.125 L 0.59375 -8.46875 L 6.59375 -8.46875 L 6.59375 2.125 Z M 1.265625 1.453125 L 5.9375 1.453125 L 5.9375 -7.78125 L 1.265625 -7.78125 Z M 1.265625 1.453125 "/>
</symbol>
<symbol overflow="visible" id="/unof0gi11-1">
<path style="stroke:none;" d="M 3.8125 -7.96875 C 3.207031 -7.96875 2.75 -7.664062 2.4375 -7.0625 C 2.132812 -6.46875 1.984375 -5.566406 1.984375 -4.359375 C 1.984375 -3.160156 2.132812 -2.257812 2.4375 -1.65625 C 2.75 -1.0625 3.207031 -0.765625 3.8125 -0.765625 C 4.425781 -0.765625 4.882812 -1.0625 5.1875 -1.65625 C 5.5 -2.257812 5.65625 -3.160156 5.65625 -4.359375 C 5.65625 -5.566406 5.5 -6.46875 5.1875 -7.0625 C 4.882812 -7.664062 4.425781 -7.96875 3.8125 -7.96875 Z M 3.8125 -8.90625 C 4.789062 -8.90625 5.539062 -8.515625 6.0625 -7.734375 C 6.582031 -6.960938 6.84375 -5.835938 6.84375 -4.359375 C 6.84375 -2.890625 6.582031 -1.765625 6.0625 -0.984375 C 5.539062 -0.210938 4.789062 0.171875 3.8125 0.171875 C 2.832031 0.171875 2.082031 -0.210938 1.5625 -0.984375 C 1.050781 -1.765625 0.796875 -2.890625 0.796875 -4.359375 C 0.796875 -5.835938 1.050781 -6.960938 1.5625 -7.734375 C 2.082031 -8.515625 2.832031 -8.90625 3.8125 -8.90625 Z M 3.8125 -8.90625 "/>
</symbol>
<symbol overflow="visible" id="/unof0gi12-0">
<path style="stroke:none;" d="M 0.59375 2.125 L 0.59375 -8.46875 L 6.59375 -8.46875 L 6.59375 2.125 Z M 1.265625 1.453125 L 5.9375 1.453125 L 5.9375 -7.78125 L 1.265625 -7.78125 Z M 1.265625 1.453125 "/>
</symbol>
<symbol overflow="visible" id="/unof0gi12-1">
<path style="stroke:none;" d="M 3.96875 -4.84375 C 3.4375 -4.84375 3.015625 -4.660156 2.703125 -4.296875 C 2.390625 -3.929688 2.234375 -3.4375 2.234375 -2.8125 C 2.234375 -2.175781 2.390625 -1.675781 2.703125 -1.3125 C 3.015625 -0.945312 3.4375 -0.765625 3.96875 -0.765625 C 4.5 -0.765625 4.914062 -0.945312 5.21875 -1.3125 C 5.53125 -1.675781 5.6875 -2.175781 5.6875 -2.8125 C 5.6875 -3.4375 5.53125 -3.929688 5.21875 -4.296875 C 4.914062 -4.660156 4.5 -4.84375 3.96875 -4.84375 Z M 6.3125 -8.5625 L 6.3125 -7.484375 C 6.007812 -7.617188 5.707031 -7.722656 5.40625 -7.796875 C 5.101562 -7.867188 4.804688 -7.90625 4.515625 -7.90625 C 3.734375 -7.90625 3.132812 -7.640625 2.71875 -7.109375 C 2.3125 -6.585938 2.078125 -5.796875 2.015625 -4.734375 C 2.242188 -5.066406 2.53125 -5.320312 2.875 -5.5 C 3.226562 -5.6875 3.613281 -5.78125 4.03125 -5.78125 C 4.90625 -5.78125 5.597656 -5.515625 6.109375 -4.984375 C 6.617188 -4.453125 6.875 -3.726562 6.875 -2.8125 C 6.875 -1.90625 6.609375 -1.179688 6.078125 -0.640625 C 5.546875 -0.0976562 4.84375 0.171875 3.96875 0.171875 C 2.945312 0.171875 2.171875 -0.210938 1.640625 -0.984375 C 1.109375 -1.765625 0.84375 -2.890625 0.84375 -4.359375 C 0.84375 -5.742188 1.171875 -6.847656 1.828125 -7.671875 C 2.484375 -8.492188 3.363281 -8.90625 4.46875 -8.90625 C 4.757812 -8.90625 5.054688 -8.875 5.359375 -8.8125 C 5.660156 -8.757812 5.976562 -8.675781 6.3125 -8.5625 Z M 6.3125 -8.5625 "/>
</symbol>
<symbol overflow="visible" id="/unof0gi12-2">
<path style="stroke:none;" d="M 3.8125 -4.15625 C 3.25 -4.15625 2.804688 -4.003906 2.484375 -3.703125 C 2.160156 -3.398438 2 -2.988281 2 -2.46875 C 2 -1.9375 2.160156 -1.519531 2.484375 -1.21875 C 2.804688 -0.914062 3.25 -0.765625 3.8125 -0.765625 C 4.375 -0.765625 4.816406 -0.914062 5.140625 -1.21875 C 5.460938 -1.519531 5.625 -1.9375 5.625 -2.46875 C 5.625 -2.988281 5.460938 -3.398438 5.140625 -3.703125 C 4.828125 -4.003906 4.382812 -4.15625 3.8125 -4.15625 Z M 2.625 -4.65625 C 2.125 -4.78125 1.726562 -5.015625 1.4375 -5.359375 C 1.15625 -5.710938 1.015625 -6.140625 1.015625 -6.640625 C 1.015625 -7.335938 1.265625 -7.890625 1.765625 -8.296875 C 2.265625 -8.703125 2.945312 -8.90625 3.8125 -8.90625 C 4.6875 -8.90625 5.367188 -8.703125 5.859375 -8.296875 C 6.359375 -7.890625 6.609375 -7.335938 6.609375 -6.640625 C 6.609375 -6.140625 6.46875 -5.710938 6.1875 -5.359375 C 5.90625 -5.015625 5.507812 -4.78125 5 -4.65625 C 5.570312 -4.519531 6.015625 -4.257812 6.328125 -3.875 C 6.648438 -3.488281 6.8125 -3.019531 6.8125 -2.46875 C 6.8125 -1.613281 6.550781 -0.957031 6.03125 -0.5 C 5.519531 -0.0507812 4.78125 0.171875 3.8125 0.171875 C 2.851562 0.171875 2.113281 -0.0507812 1.59375 -0.5 C 1.070312 -0.957031 0.8125 -1.613281 0.8125 -2.46875 C 0.8125 -3.019531 0.972656 -3.488281 1.296875 -3.875 C 1.617188 -4.257812 2.0625 -4.519531 2.625 -4.65625 Z M 2.203125 -6.53125 C 2.203125 -6.070312 2.34375 -5.71875 2.625 -5.46875 C 2.90625 -5.21875 3.300781 -5.09375 3.8125 -5.09375 C 4.320312 -5.09375 4.71875 -5.21875 5 -5.46875 C 5.289062 -5.71875 5.4375 -6.070312 5.4375 -6.53125 C 5.4375 -6.976562 5.289062 -7.328125 5 -7.578125 C 4.71875 -7.835938 4.320312 -7.96875 3.8125 -7.96875 C 3.300781 -7.96875 2.90625 -7.835938 2.625 -7.578125 C 2.34375 -7.328125 2.203125 -6.976562 2.203125 -6.53125 Z M 2.203125 -6.53125 "/>
</symbol>
<symbol overflow="visible" id="/unof0gi13-0">
<path style="stroke:none;" d="M 0.59375 2.125 L 0.59375 -8.46875 L 6.59375 -8.46875 L 6.59375 2.125 Z M 1.265625 1.453125 L 5.9375 1.453125 L 5.9375 -7.78125 L 1.265625 -7.78125 Z M 1.265625 1.453125 "/>
</symbol>
<symbol overflow="visible" id="/unof0gi13-1">
<path style="stroke:none;" d="M 3.8125 -7.96875 C 3.207031 -7.96875 2.75 -7.664062 2.4375 -7.0625 C 2.132812 -6.46875 1.984375 -5.566406 1.984375 -4.359375 C 1.984375 -3.160156 2.132812 -2.257812 2.4375 -1.65625 C 2.75 -1.0625 3.207031 -0.765625 3.8125 -0.765625 C 4.425781 -0.765625 4.882812 -1.0625 5.1875 -1.65625 C 5.5 -2.257812 5.65625 -3.160156 5.65625 -4.359375 C 5.65625 -5.566406 5.5 -6.46875 5.1875 -7.0625 C 4.882812 -7.664062 4.425781 -7.96875 3.8125 -7.96875 Z M 3.8125 -8.90625 C 4.789062 -8.90625 5.539062 -8.515625 6.0625 -7.734375 C 6.582031 -6.960938 6.84375 -5.835938 6.84375 -4.359375 C 6.84375 -2.890625 6.582031 -1.765625 6.0625 -0.984375 C 5.539062 -0.210938 4.789062 0.171875 3.8125 0.171875 C 2.832031 0.171875 2.082031 -0.210938 1.5625 -0.984375 C 1.050781 -1.765625 0.796875 -2.890625 0.796875 -4.359375 C 0.796875 -5.835938 1.050781 -6.960938 1.5625 -7.734375 C 2.082031 -8.515625 2.832031 -8.90625 3.8125 -8.90625 Z M 3.8125 -8.90625 "/>
</symbol>
</g>
</defs>
<g id="surface1">
<rect x="0" y="0" width="600" height="450" style="fill:rgb(100%,100%,100%);fill-opacity:1;stroke:none;"/>
<path style=" stroke:none;fill-rule:nonzero;fill:rgb(100%,100%,100%);fill-opacity:1;" d="M 51 402 L 588 402 L 588 12 L 51 12 Z M 51 402 "/>
<path style="fill:none;stroke-width:1;stroke-linecap:butt;stroke-linejoin:miter;stroke:rgb(0%,0%,0%);stroke-opacity:0.12;stroke-miterlimit:10;" d="M 68 513.317708 L 784 513.317708 " transform="matrix(0.75,0,0,0.75,0,0)"/>
<path style="fill:none;stroke-width:1;stroke-linecap:butt;stroke-linejoin:miter;stroke:rgb(0%,0%,0%);stroke-opacity:0.12;stroke-miterlimit:10;" d="M 68 400.244792 L 784 400.244792 " transform="matrix(0.75,0,0,0.75,0,0)"/>
<path style="fill:none;stroke-width:1;stroke-linecap:butt;stroke-linejoin:miter;stroke:rgb(0%,0%,0%);stroke-opacity:0.12;stroke-miterlimit:10;" d="M 68 287.166667 L 784 287.166667 " transform="matrix(0.75,0,0,0.75,0,0)"/>
<path style="fill:none;stroke-width:1;stroke-linecap:butt;stroke-linejoin:miter;stroke:rgb(0%,0%,0%);stroke-opacity:0.12;stroke-miterlimit:10;" d="M 68 174.088542 L 784 174.088542 " transform="matrix(0.75,0,0,0.75,0,0)"/>
<path style="fill:none;stroke-width:1;stroke-linecap:butt;stroke-linejoin:miter;stroke:rgb(0%,0%,0%);stroke-opacity:0.12;stroke-miterlimit:10;" d="M 68 61.010417 L 784 61.010417 " transform="matrix(0.75,0,0,0.75,0,0)"/>
<g style="fill:rgb(0%,0%,0%);fill-opacity:1;">
  <use xlink:href="#/unof0gi0-1" x="290.953125" y="436.109375"/>
</g>
<g style="fill:rgb(0%,0%,0%);fill-opacity:1;">
  <use xlink:href="#/unof0gi1-1" x="294.492188" y="436.109375"/>
</g>
<g style="fill:rgb(0%,0%,0%);fill-opacity:1;">
  <use xlink:href="#/unof0gi1-2" x="299.195312" y="436.109375"/>
</g>
<g style="fill:rgb(0%,0%,0%);fill-opacity:1;">
  <use xlink:href="#/unof0gi0-2" x="306.578125" y="436.109375"/>
</g>
<g style="fill:rgb(0%,0%,0%);fill-opacity:1;">
  <use xlink:href="#/unof0gi1-3" x="311.511719" y="436.109375"/>
</g>
<g style="fill:rgb(0%,0%,0%);fill-opacity:1;">
  <use xlink:href="#/unof0gi2-1" x="318.867188" y="436.109375"/>
</g>
<g style="fill:rgb(0%,0%,0%);fill-opacity:1;">
  <use xlink:href="#/unof0gi0-3" x="323.570312" y="436.109375"/>
</g>
<g style="fill:rgb(0%,0%,0%);fill-opacity:1;">
  <use xlink:href="#/unof0gi0-4" x="326.90625" y="436.109375"/>
</g>
<g style="fill:rgb(0%,0%,0%);fill-opacity:1;">
  <use xlink:href="#/unof0gi2-2" x="334.25" y="436.109375"/>
</g>
<g style="fill:rgb(0%,0%,0%);fill-opacity:1;">
  <use xlink:href="#/unof0gi0-5" x="341.851562" y="436.109375"/>
</g>
<g style="fill:rgb(0%,0%,0%);fill-opacity:1;">
  <use xlink:href="#/unof0gi3-1" x="71.957031" y="419.890625"/>
</g>
<g style="fill:rgb(0%,0%,0%);fill-opacity:1;">
  <use xlink:href="#/unof0gi2-3" x="242.410156" y="419.890625"/>
</g>
<g style="fill:rgb(0%,0%,0%);fill-opacity:1;">
  <use xlink:href="#/unof0gi2-4" x="250.042969" y="419.890625"/>
</g>
<g style="fill:rgb(0%,0%,0%);fill-opacity:1;">
  <use xlink:href="#/unof0gi2-5" x="253.859375" y="419.890625"/>
</g>
<g style="fill:rgb(0%,0%,0%);fill-opacity:1;">
  <use xlink:href="#/unof0gi2-5" x="261.492188" y="419.890625"/>
</g>
<g style="fill:rgb(0%,0%,0%);fill-opacity:1;">
  <use xlink:href="#/unof0gi2-6" x="269.128906" y="419.890625"/>
</g>
<g style="fill:rgb(0%,0%,0%);fill-opacity:1;">
  <use xlink:href="#/unof0gi0-6" x="279.183594" y="419.890625"/>
</g>
<g style="fill:rgb(0%,0%,0%);fill-opacity:1;">
  <use xlink:href="#/unof0gi2-5" x="286.816406" y="419.890625"/>
</g>
<g style="fill:rgb(0%,0%,0%);fill-opacity:1;">
  <use xlink:href="#/unof0gi2-7" x="294.453125" y="419.890625"/>
</g>
<g style="fill:rgb(0%,0%,0%);fill-opacity:1;">
  <use xlink:href="#/unof0gi2-8" x="437.238281" y="419.890625"/>
</g>
<g style="fill:rgb(0%,0%,0%);fill-opacity:1;">
  <use xlink:href="#/unof0gi4-1" x="444.871094" y="419.890625"/>
</g>
<g style="fill:rgb(0%,0%,0%);fill-opacity:1;">
  <use xlink:href="#/unof0gi2-9" x="448.6875" y="419.890625"/>
</g>
<g style="fill:rgb(0%,0%,0%);fill-opacity:1;">
  <use xlink:href="#/unof0gi2-5" x="456.320312" y="419.890625"/>
</g>
<g style="fill:rgb(0%,0%,0%);fill-opacity:1;">
  <use xlink:href="#/unof0gi2-6" x="463.957031" y="419.890625"/>
</g>
<g style="fill:rgb(0%,0%,0%);fill-opacity:1;">
  <use xlink:href="#/unof0gi2-8" x="474.011719" y="419.890625"/>
</g>
<g style="fill:rgb(0%,0%,0%);fill-opacity:1;">
  <use xlink:href="#/unof0gi2-5" x="481.644531" y="419.890625"/>
</g>
<g style="fill:rgb(0%,0%,0%);fill-opacity:1;">
  <use xlink:href="#/unof0gi2-10" x="489.28125" y="419.890625"/>
</g>
<g style="fill:rgb(0%,0%,0%);fill-opacity:1;">
  <use xlink:href="#/unof0gi5-1" x="22.28125" y="223.5625"/>
</g>
<g style="fill:rgb(0%,0%,0%);fill-opacity:1;">
  <use xlink:href="#/unof0gi6-1" x="22.28125" y="215.222656"/>
</g>
<g style="fill:rgb(0%,0%,0%);fill-opacity:1;">
  <use xlink:href="#/unof0gi6-2" x="22.28125" y="204.871094"/>
</g>
<g style="fill:rgb(0%,0%,0%);fill-opacity:1;">
  <use xlink:href="#/unof0gi5-2" x="22.28125" y="197.253906"/>
</g>
<g style="fill:rgb(0%,0%,0%);fill-opacity:1;">
  <use xlink:href="#/unof0gi7-1" x="36.703125" y="389.144531"/>
</g>
<g style="fill:rgb(0%,0%,0%);fill-opacity:1;">
  <use xlink:href="#/unof0gi8-1" x="29.066406" y="304.335938"/>
</g>
<g style="fill:rgb(0%,0%,0%);fill-opacity:1;">
  <use xlink:href="#/unof0gi9-1" x="36.703125" y="304.335938"/>
</g>
<g style="fill:rgb(0%,0%,0%);fill-opacity:1;">
  <use xlink:href="#/unof0gi10-1" x="29.066406" y="219.527344"/>
</g>
<g style="fill:rgb(0%,0%,0%);fill-opacity:1;">
  <use xlink:href="#/unof0gi11-1" x="36.703125" y="219.527344"/>
</g>
<g style="fill:rgb(0%,0%,0%);fill-opacity:1;">
  <use xlink:href="#/unof0gi12-1" x="29.066406" y="134.722656"/>
</g>
<g style="fill:rgb(0%,0%,0%);fill-opacity:1;">
  <use xlink:href="#/unof0gi13-1" x="36.703125" y="134.722656"/>
</g>
<g style="fill:rgb(0%,0%,0%);fill-opacity:1;">
  <use xlink:href="#/unof0gi12-2" x="29.066406" y="49.914062"/>
</g>
<g style="fill:rgb(0%,0%,0%);fill-opacity:1;">
  <use xlink:href="#/unof0gi13-1" x="36.703125" y="49.914062"/>
</g>
<path style="fill:none;stroke-width:1.5;stroke-linecap:butt;stroke-linejoin:miter;stroke:rgb(0%,44.705883%,69.803923%);stroke-opacity:1;stroke-miterlimit:10;" d="M 100.546875 153.317708 L 100.588542 148.619792 L 100.677083 148.619792 L 100.71875 190.265625 L 103.802083 190.265625 L 103.84375 132.484375 L 103.885417 132.484375 L 103.932292 128.536458 L 106.40625 128.536458 L 106.447917 129.192708 L 106.578125 129.192708 L 106.619792 128.557292 L 106.75 128.557292 L 106.796875 128.578125 L 109.614583 128.578125 L 109.65625 138.359375 L 114.130208 138.359375 L 114.171875 136.177083 L 132.052083 136.177083 L 132.09375 161.838542 L 132.921875 161.838542 L 132.963542 326.625 L 138.34375 326.625 L 138.385417 326.057292 L 141.859375 326.057292 L 141.901042 141.161458 L 142.03125 141.161458 L 142.078125 140.609375 L 142.119792 146.338542 L 142.161458 146.6875 L 142.208333 146.6875 L 142.25 149.3125 L 142.380208 149.3125 L 142.421875 403.135417 L 142.552083 403.135417 L 142.598958 419.963542 L 143.291667 419.963542 L 143.333333 406.619792 L 165.552083 406.619792 L 165.598958 402.979167 L 165.859375 402.979167 L 165.901042 419.604167 L 165.942708 419.604167 L 165.989583 419.65625 L 166.03125 419.65625 L 166.072917 324.65625 L 166.119792 317.072917 L 166.161458 318.114583 L 167.505208 318.114583 L 167.552083 324.364583 L 167.895833 324.364583 L 167.942708 331.927083 L 168.026042 331.927083 L 168.072917 323.953125 L 169.15625 323.953125 L 169.197917 323.791667 L 169.979167 323.791667 L 170.026042 325.15625 L 171.411458 325.15625 L 171.458333 345.583333 L 173.796875 345.583333 L 173.84375 337.807292 L 173.973958 337.807292 L 174.015625 390.53125 L 177.963542 390.53125 L 178.010417 422.317708 L 181.567708 422.317708 L 181.609375 420.197917 L 183.21875 420.197917 L 183.260417 413.364583 L 186.776042 413.364583 L 186.817708 421.25 L 187.427083 421.25 L 187.46875 465.354167 L 190.463542 465.354167 L 190.505208 469.25 L 199.447917 469.25 L 199.489583 468.671875 L 201.744792 468.671875 L 201.791667 490.244792 L 202.265625 490.244792 L 202.3125 494.911458 L 205.260417 494.911458 L 205.307292 498.010417 L 205.348958 497.411458 L 207.390625 497.411458 L 207.432292 507.036458 L 208.34375 507.036458 L 208.385417 498.895833 L 208.432292 498.895833 L 208.473958 497.453125 L 208.604167 497.453125 L 208.645833 497.302083 L 208.692708 497.302083 L 208.734375 497.541667 L 209.036458 497.541667 L 209.083333 498.515625 L 209.213542 498.515625 L 209.255208 506.0625 L 211.291667 506.0625 L 211.338542 507.036458 L 211.8125 507.036458 L 211.859375 507.041667 L 213.203125 507.041667 L 213.244792 508.609375 L 216.067708 508.609375 L 216.109375 508.390625 L 229.21875 508.390625 L 229.260417 508.671875 L 229.302083 506.286458 L 231.302083 506.286458 L 231.34375 507.171875 L 233.989583 507.171875 L 234.036458 491.416667 L 234.078125 491.416667 L 234.119792 448.328125 L 234.208333 448.328125 L 234.25 496.833333 L 234.6875 496.833333 L 234.729167 496.932292 L 236.203125 496.932292 L 236.244792 508.557292 L 236.505208 508.557292 L 236.552083 508.989583 L 260.333333 508.989583 L 260.375 509.484375 L 264.973958 509.484375 L 265.020833 509.46875 L 266.453125 509.46875 L 266.494792 509.942708 L 273.354167 509.942708 L 273.395833 510.833333 L 363.140625 510.833333 L 363.182292 510.630208 L 391.911458 510.630208 L 391.953125 511.182292 L 392.953125 511.182292 L 392.994792 512.322917 L 397.119792 512.322917 L 397.161458 512.34375 L 400.286458 512.34375 L 400.333333 507.098958 L 400.416667 507.098958 L 400.463542 502.203125 L 403.239583 502.203125 L 403.28125 503.359375 L 406.1875 503.359375 L 406.234375 506.484375 L 413.78125 506.484375 L 413.828125 503.84375 L 414 503.84375 L 414.041667 507.057292 L 415.78125 507.057292 L 415.822917 486.979167 L 415.953125 486.979167 L 415.994792 486.916667 L 416.90625 486.916667 L 416.953125 486.989583 L 417.947917 486.989583 L 417.994792 490.192708 L 420.901042 490.192708 L 420.942708 488.390625 L 421.421875 488.390625 L 421.463542 496.369792 L 421.770833 496.369792 L 421.8125 497.083333 L 422.723958 497.083333 L 422.765625 507.588542 L 425.546875 507.588542 L 425.588542 507.255208 L 430.489583 507.255208 L 430.536458 507.53125 L 450.932292 507.53125 L 450.973958 508.458333 L 452.838542 508.458333 L 452.885417 496.927083 L 452.927083 496.927083 L 452.96875 498.359375 L 453.708333 498.359375 L 453.75 499.166667 L 453.880208 499.166667 L 453.927083 498.765625 L 454.057292 498.765625 L 454.098958 499.848958 L 455.619792 499.848958 L 455.661458 505.682292 L 455.791667 505.682292 L 455.833333 505.885417 L 460.911458 505.885417 L 460.958333 506.182292 L 461 506.182292 L 461.041667 506.979167 L 462.911458 506.979167 L 462.953125 508.114583 L 464.817708 508.114583 L 464.859375 509.28125 L 466.03125 509.28125 L 466.078125 510.583333 L 474.885417 510.583333 L 474.932292 510.645833 L 490.682292 510.645833 L 490.723958 510.359375 L 536.682292 510.359375 L 536.729167 510.645833 L 590.364583 510.645833 L 590.411458 510.4375 L 606.59375 510.4375 L 606.640625 511.375 L 612.760417 511.375 L 612.802083 512.260417 L 618.140625 512.260417 L 618.182292 511.838542 L 644.046875 511.838542 L 644.088542 512.302083 L 675.8125 512.302083 L 675.859375 511.84375 L 751.453125 511.84375 " transform="matrix(0.75,0,0,0.75,0,0)"/>
<path style="fill:none;stroke-width:1.5;stroke-linecap:butt;stroke-linejoin:miter;stroke:rgb(90.196079%,62.352943%,0%);stroke-opacity:1;stroke-miterlimit:10;" d="M 100.546875 131.953125 L 100.677083 131.953125 L 100.71875 134.791667 L 100.760417 135.166667 L 101.239583 135.166667 L 101.28125 296.739583 L 101.541667 296.739583 L 101.588542 254.442708 L 101.848958 254.442708 L 101.890625 324.192708 L 101.979167 324.192708 L 102.020833 354.71875 L 102.0625 331.276042 L 102.322917 331.276042 L 102.369792 332.09375 L 104.0625 332.09375 L 104.104167 297.567708 L 104.276042 297.567708 L 104.322917 180.078125 L 104.625 180.078125 L 104.666667 297.567708 L 104.713542 275.359375 L 104.84375 275.359375 L 104.885417 305.869792 L 104.927083 305.869792 L 104.973958 365.328125 L 105.276042 365.328125 L 105.317708 428.234375 L 105.838542 428.234375 L 105.885417 418.479167 L 106.40625 418.479167 L 106.447917 393.15625 L 107.098958 393.15625 L 107.140625 392.635417 L 108.140625 392.635417 L 108.182292 392.510417 L 108.53125 392.510417 L 108.572917 388.979167 L 121.552083 388.979167 L 121.59375 392.510417 L 122.375 392.510417 L 122.416667 396.208333 L 124.979167 396.208333 L 125.020833 394.796875 L 130.96875 394.796875 L 131.010417 394.453125 L 133.3125 394.453125 L 133.354167 394.911458 L 144.375 394.911458 L 144.421875 152.661458 L 144.463542 138.020833 L 144.552083 138.020833 L 144.59375 134.088542 L 144.984375 134.088542 L 145.026042 134.203125 L 146.244792 134.203125 L 146.286458 135.510417 L 148.322917 135.510417 L 148.369792 133.015625 L 150.104167 133.015625 L 150.145833 131.770833 L 153.447917 131.770833 L 153.489583 390.979167 L 154.010417 390.979167 L 154.052083 394.864583 L 154.963542 394.864583 L 155.010417 393.973958 L 172.0625 393.973958 L 172.109375 393.515625 L 173.015625 393.515625 L 173.0625 391.223958 L 185.734375 391.223958 L 185.776042 147.947917 L 185.817708 219.5 L 185.864583 229.104167 L 186.208333 229.104167 L 186.255208 151.671875 L 187.208333 151.671875 L 187.25 155.520833 L 187.296875 206.458333 L 187.338542 206.713542 L 187.427083 206.713542 L 187.46875 503.28125 L 187.598958 503.28125 L 187.640625 490.489583 L 187.947917 490.489583 L 187.989583 490.411458 L 188.729167 490.411458 L 188.770833 496.119792 L 190.984375 496.119792 L 191.026042 490.546875 L 191.15625 490.546875 L 191.203125 490.828125 L 191.375 490.828125 L 191.416667 488.40625 L 191.463542 487.5 L 192.197917 487.5 L 192.244792 487.520833 L 192.286458 487.520833 L 192.328125 488.963542 L 192.416667 488.963542 L 192.458333 170.489583 L 196.671875 170.489583 L 196.713542 482.838542 L 196.802083 482.838542 L 196.84375 481.765625 L 196.932292 481.765625 L 196.973958 471.078125 L 197.322917 471.078125 L 197.364583 490.489583 L 197.494792 490.489583 L 197.536458 503.385417 L 219.453125 503.385417 L 219.494792 503.479167 L 223.010417 503.479167 L 223.057292 503.609375 L 227.869792 503.609375 L 227.916667 504.067708 L 229.171875 504.067708 L 229.21875 504.65625 L 233.255208 504.65625 L 233.296875 505.510417 L 234.380208 505.510417 L 234.427083 502.447917 L 234.729167 502.447917 L 234.770833 499.708333 L 234.859375 499.708333 L 234.901042 498.932292 L 236.463542 498.932292 L 236.505208 501.802083 L 237.854167 501.802083 L 237.895833 501.71875 L 239.890625 501.71875 L 239.9375 505.171875 L 239.979167 505.171875 L 240.020833 506.5625 L 242.0625 506.5625 L 242.104167 506.666667 L 242.322917 506.666667 L 242.364583 506.645833 L 243.885417 506.645833 L 243.927083 506.989583 L 245.536458 506.989583 L 245.578125 508.145833 L 275.302083 508.145833 L 275.348958 135.6875 L 275.390625 151.520833 L 275.432292 151.520833 L 275.479167 497.932292 L 275.520833 497.932292 L 275.5625 498.166667 L 275.869792 498.166667 L 275.911458 501 L 277.432292 501 L 277.473958 506.364583 L 277.515625 506.364583 L 277.5625 506.15625 L 280.989583 506.15625 L 281.03125 507.505208 L 281.25 507.505208 L 281.291667 496.916667 L 282.03125 496.916667 L 282.072917 506.15625 L 284.114583 506.15625 L 284.15625 506.84375 L 285.588542 506.84375 L 285.635417 507.546875 L 286.286458 507.546875 L 286.328125 506.15625 L 286.890625 506.15625 L 286.932292 497.213542 L 286.979167 497.213542 L 287.020833 496.953125 L 287.0625 496.953125 L 287.109375 497.302083 L 287.322917 497.302083 L 287.369792 506.520833 L 288.541667 506.520833 L 288.583333 511.322917 L 295.744792 511.322917 L 295.786458 511.119792 L 308.677083 511.119792 L 308.71875 511.213542 L 449.71875 511.213542 L 449.760417 511.260417 L 493.067708 511.260417 L 493.114583 510.489583 L 502.963542 510.489583 L 503.005208 511.473958 L 544.494792 511.473958 L 544.536458 512.223958 L 556.994792 512.223958 L 557.036458 512.046875 L 576.697917 512.046875 L 576.739583 512.234375 L 626.255208 512.234375 L 626.296875 512.151042 L 652.989583 512.151042 L 653.03125 511.984375 L 751.453125 511.984375 " transform="matrix(0.75,0,0,0.75,0,0)"/>
<path style="fill:none;stroke-width:1.5;stroke-linecap:butt;stroke-linejoin:miter;stroke:rgb(0%,61.960787%,45.09804%);stroke-opacity:1;stroke-miterlimit:10;" d="M 100.546875 135.213542 L 100.588542 135.213542 L 100.630208 134.161458 L 100.677083 134.161458 L 100.71875 133.65625 L 104.40625 133.65625 L 104.453125 206.520833 L 104.885417 206.520833 L 104.927083 426.734375 L 117.078125 426.734375 L 117.125 394.989583 L 117.729167 394.989583 L 117.776042 402.145833 L 117.817708 402.609375 L 118.166667 402.609375 L 118.208333 339.822917 L 120.119792 339.822917 L 120.161458 339.8125 L 120.463542 339.8125 L 120.510417 339.328125 L 121.8125 339.328125 L 121.854167 329.1875 L 122.114583 329.1875 L 122.15625 391.552083 L 122.416667 391.552083 L 122.458333 399.364583 L 138.994792 399.364583 L 139.036458 390.953125 L 148.541667 390.953125 L 148.583333 390.979167 L 167.59375 390.979167 L 167.635417 423.380208 L 174.145833 423.380208 L 174.1875 438.791667 L 174.755208 438.791667 L 174.796875 432.338542 L 179.3125 432.338542 L 179.354167 490.708333 L 179.395833 490.609375 L 179.526042 490.609375 L 179.572917 490.348958 L 179.786458 490.348958 L 179.833333 500.848958 L 180.395833 500.848958 L 180.4375 499.880208 L 181.348958 499.880208 L 181.395833 500.395833 L 183.609375 500.395833 L 183.651042 500.838542 L 191.375 500.838542 L 191.416667 506.125 L 192.197917 506.125 L 192.244792 506.026042 L 192.635417 506.026042 L 192.677083 490.270833 L 192.807292 490.270833 L 192.848958 491.348958 L 193.067708 491.348958 L 193.109375 490.229167 L 193.15625 487.729167 L 193.197917 426.041667 L 193.416667 426.041667 L 193.458333 489.317708 L 193.588542 489.317708 L 193.630208 467.229167 L 194.067708 467.229167 L 194.109375 451.973958 L 194.630208 451.973958 L 194.671875 445.791667 L 195.28125 445.791667 L 195.322917 473.302083 L 195.671875 473.302083 L 195.713542 491.348958 L 201.3125 491.348958 L 201.354167 497.401042 L 201.401042 497.401042 L 201.442708 497.776042 L 201.484375 497.776042 L 201.53125 498.515625 L 201.921875 498.515625 L 201.963542 498.286458 L 203.09375 498.286458 L 203.135417 497.880208 L 204.348958 497.880208 L 204.395833 499.010417 L 205.046875 499.010417 L 205.088542 498.96875 L 206.520833 498.96875 L 206.5625 499 L 207.302083 499 L 207.34375 498.994792 L 207.911458 498.994792 L 207.953125 490.588542 L 208.255208 490.588542 L 208.302083 491.25 L 210.6875 491.25 L 210.729167 497.729167 L 211.291667 497.729167 L 211.338542 506.0625 L 212.203125 506.0625 L 212.25 506.03125 L 213.203125 506.03125 L 213.244792 506.802083 L 213.552083 506.802083 L 213.59375 497.260417 L 213.723958 497.260417 L 213.765625 497.192708 L 213.895833 497.192708 L 213.942708 499.015625 L 213.984375 499.015625 L 214.026042 498.994792 L 214.072917 498.994792 L 214.114583 498.46875 L 214.15625 498.46875 L 214.203125 507.015625 L 217.458333 507.015625 L 217.5 506.958333 L 217.848958 506.958333 L 217.890625 506.484375 L 217.932292 507.927083 L 221.234375 507.927083 L 221.276042 506.880208 L 225.526042 506.880208 L 225.572917 501.651042 L 225.614583 501.651042 L 225.65625 501.572917 L 225.963542 501.572917 L 226.005208 501.296875 L 226.046875 501.296875 L 226.09375 501.416667 L 226.223958 501.416667 L 226.265625 498.401042 L 226.307292 498.401042 L 226.354167 496.661458 L 226.484375 496.661458 L 226.526042 497.364583 L 226.65625 497.364583 L 226.697917 496.864583 L 227.265625 496.864583 L 227.307292 497.28125 L 227.348958 497.28125 L 227.395833 497.083333 L 227.526042 497.083333 L 227.567708 496.84375 L 227.869792 496.84375 L 227.916667 497.140625 L 228.479167 497.140625 L 228.520833 496.796875 L 228.739583 496.796875 L 228.78125 501.203125 L 229.171875 501.203125 L 229.21875 506.880208 L 230.651042 506.880208 L 230.692708 504.067708 L 231.34375 504.067708 L 231.385417 497.645833 L 231.432292 497.645833 L 231.473958 499.036458 L 231.776042 499.036458 L 231.822917 498.78125 L 232.385417 498.78125 L 232.427083 506.989583 L 237.765625 506.989583 L 237.807292 507.395833 L 238.067708 507.395833 L 238.114583 506.046875 L 238.677083 506.046875 L 238.71875 503.15625 L 239.239583 503.15625 L 239.286458 504.177083 L 240.979167 504.177083 L 241.020833 504.145833 L 245.015625 504.145833 L 245.057292 504.796875 L 245.098958 504.796875 L 245.145833 485.994792 L 245.796875 485.994792 L 245.838542 508.625 L 246.140625 508.625 L 246.1875 508.53125 L 247.359375 508.53125 L 247.401042 508.145833 L 251 508.145833 L 251.046875 135.416667 L 251.088542 135.416667 L 251.130208 135.083333 L 251.177083 135.083333 L 251.21875 350.072917 L 251.697917 350.072917 L 251.739583 178.651042 L 251.828125 178.651042 L 251.869792 187.265625 L 252.041667 187.265625 L 252.088542 338.552083 L 252.130208 147.984375 L 252.171875 147.984375 L 252.21875 137.130208 L 252.260417 137.130208 L 252.302083 138.921875 L 252.348958 395.927083 L 252.651042 395.927083 L 252.692708 145.052083 L 252.739583 155.630208 L 252.911458 155.630208 L 252.953125 256.635417 L 253.041667 256.635417 L 253.083333 255.614583 L 253.130208 255.614583 L 253.171875 236.28125 L 253.34375 236.28125 L 253.390625 236.286458 L 253.520833 236.286458 L 253.5625 462.453125 L 254.34375 462.453125 L 254.385417 487.666667 L 254.692708 487.666667 L 254.734375 463.520833 L 255.083333 463.520833 L 255.125 506.041667 L 255.255208 506.041667 L 255.296875 506.119792 L 255.515625 506.119792 L 255.557292 506.005208 L 255.604167 506.005208 L 255.645833 320.182292 L 255.6875 320.182292 L 255.734375 320.1875 L 255.776042 398.401042 L 255.817708 398.40625 L 256.078125 398.40625 L 256.125 489.682292 L 256.255208 489.682292 L 256.296875 497.5625 L 257.557292 497.5625 L 257.598958 393.473958 L 257.640625 143.046875 L 257.859375 143.046875 L 257.901042 142.494792 L 257.947917 142.505208 L 257.989583 142.505208 L 258.03125 407.072917 L 258.380208 407.072917 L 258.421875 412.151042 L 258.46875 147.270833 L 258.640625 147.270833 L 258.682292 39.635417 L 259.682292 39.635417 L 259.723958 141.354167 L 263.588542 141.354167 L 263.630208 508.036458 L 264.973958 508.036458 L 265.020833 506.791667 L 265.151042 506.791667 L 265.192708 507.880208 L 268.015625 507.880208 L 268.057292 509.322917 L 272.354167 509.322917 L 272.395833 508.59375 L 276 508.59375 L 276.041667 509.182292 L 285.375 509.182292 L 285.416667 509.052083 L 318.65625 509.052083 L 318.703125 509.286458 L 322.78125 509.286458 L 322.822917 508.385417 L 331.979167 508.385417 L 332.026042 509.5625 L 332.5 509.5625 L 332.546875 506.9375 L 332.677083 506.9375 L 332.71875 507.421875 L 358.494792 507.421875 L 358.541667 507.932292 L 369.083333 507.932292 L 369.130208 506.942708 L 373.901042 506.942708 L 373.947917 135.432292 L 374.078125 135.432292 L 374.119792 135.208333 L 374.161458 135.208333 L 374.208333 147.588542 L 374.25 147.859375 L 374.291667 147.859375 L 374.338542 146.510417 L 374.421875 146.510417 L 374.46875 134.473958 L 374.510417 131.796875 L 374.552083 131.6875 L 374.682292 131.6875 L 374.729167 131.703125 L 374.8125 131.703125 L 374.859375 134.828125 L 375.072917 134.828125 L 375.114583 134.473958 L 375.25 134.473958 L 375.291667 508.166667 L 377.71875 508.166667 L 377.765625 507.140625 L 378.109375 507.140625 L 378.15625 505.8125 L 381.192708 505.8125 L 381.234375 504.661458 L 389.526042 504.661458 L 389.567708 504.276042 L 389.65625 504.276042 L 389.697917 505.463542 L 391.609375 505.463542 L 391.651042 506.567708 L 395.208333 506.567708 L 395.255208 479.114583 L 395.427083 479.114583 L 395.46875 472.604167 L 395.6875 472.604167 L 395.729167 508.104167 L 397.03125 508.104167 L 397.078125 510.526042 L 397.161458 510.526042 L 397.208333 510.380208 L 442.078125 510.380208 L 442.119792 508.432292 L 460.088542 508.432292 L 460.130208 506.302083 L 461 506.302083 L 461.041667 508.34375 L 467.510417 508.34375 L 467.552083 508.130208 L 470.026042 508.130208 L 470.067708 508.203125 L 473.5 508.203125 L 473.541667 508.098958 L 480.3125 508.098958 L 480.354167 261.59375 L 480.65625 261.59375 L 480.703125 256.791667 L 480.833333 256.791667 L 480.875 250.458333 L 481.307292 250.458333 L 481.354167 252.145833 L 481.526042 252.145833 L 481.567708 506.109375 L 482.958333 506.109375 L 483 504.036458 L 486.083333 504.036458 L 486.125 510.557292 L 502.614583 510.557292 L 502.661458 493.864583 L 502.703125 405.255208 L 502.921875 405.255208 L 502.963542 447.192708 L 503.182292 447.192708 L 503.223958 501.359375 L 503.265625 501.359375 L 503.3125 495.442708 L 503.786458 495.442708 L 503.833333 495.4375 L 503.875 495.4375 L 503.916667 498.479167 L 507.869792 498.479167 L 507.911458 498.385417 L 508.171875 498.385417 L 508.213542 500.182292 L 511.859375 500.182292 L 511.90625 510.276042 L 513.161458 510.276042 L 513.208333 507.057292 L 513.770833 507.057292 L 513.8125 508.010417 L 516.458333 508.010417 L 516.505208 508.6875 L 517.067708 508.6875 L 517.109375 507.645833 L 521.145833 507.645833 L 521.192708 508.572917 L 527.567708 508.572917 L 527.614583 510.015625 L 533.296875 510.015625 L 533.34375 509.677083 L 597.526042 509.677083 L 597.567708 509.8125 L 621.958333 509.8125 L 622 509.901042 L 623.911458 509.901042 L 623.953125 506.786458 L 624 506.786458 L 624.041667 508.145833 L 626.864583 508.145833 L 626.90625 510.65625 L 627.036458 510.65625 L 627.078125 509.088542 L 630.59375 509.088542 L 630.635417 509.104167 L 630.942708 509.104167 L 630.984375 509.494792 L 633.458333 509.494792 L 633.5 511.880208 L 633.546875 511.880208 L 633.588542 511.822917 L 634.239583 511.822917 L 634.28125 511.802083 L 634.760417 511.802083 L 634.802083 511.90625 L 639.276042 511.90625 L 639.317708 511.708333 L 652.640625 511.708333 L 652.682292 512.130208 L 654.505208 512.130208 L 654.546875 509.484375 L 655.588542 509.484375 L 655.635417 509.442708 L 656.71875 509.442708 L 656.760417 509.286458 L 656.848958 509.286458 L 656.890625 510.505208 L 657.671875 510.505208 L 657.71875 508.046875 L 657.848958 508.046875 L 657.890625 511.354167 L 658.802083 511.354167 L 658.84375 511.395833 L 751.453125 511.395833 " transform="matrix(0.75,0,0,0.75,0,0)"/>
<path style="fill:none;stroke-width:1.5;stroke-linecap:butt;stroke-linejoin:miter;stroke:rgb(80.000001%,47.450981%,65.490198%);stroke-opacity:1;stroke-miterlimit:10;" d="M 100.546875 213.90625 L 100.588542 213.90625 L 100.630208 211.161458 L 100.71875 211.161458 L 100.760417 204.182292 L 101.151042 204.182292 L 101.197917 363.958333 L 101.28125 363.958333 L 101.328125 366.104167 L 103.020833 366.104167 L 103.0625 366.119792 L 104.322917 366.119792 L 104.364583 364.822917 L 105.447917 364.822917 L 105.494792 132.625 L 106.015625 132.625 L 106.057292 162.208333 L 106.96875 162.208333 L 107.010417 132.442708 L 109.744792 132.442708 L 109.786458 133.177083 L 122.328125 133.177083 L 122.375 163.515625 L 123.328125 163.515625 L 123.369792 165.203125 L 125.583333 165.203125 L 125.630208 403.859375 L 129.145833 403.859375 L 129.1875 391.036458 L 129.229167 392.239583 L 129.40625 392.239583 L 129.447917 156.380208 L 129.578125 156.380208 L 129.619792 150.317708 L 129.666667 158.421875 L 129.75 158.421875 L 129.796875 134.177083 L 129.838542 134.223958 L 129.880208 136.098958 L 130.098958 136.098958 L 130.140625 133.786458 L 130.489583 133.786458 L 130.53125 161.088542 L 130.619792 161.088542 L 130.661458 161.817708 L 131.833333 161.817708 L 131.880208 398.119792 L 133.223958 398.119792 L 133.265625 437.020833 L 133.3125 442.197917 L 133.526042 442.197917 L 133.572917 440.057292 L 133.614583 453.458333 L 133.65625 406.375 L 134.005208 406.375 L 134.046875 321.088542 L 135.479167 321.088542 L 135.520833 406.375 L 136.390625 406.375 L 136.432292 404.223958 L 141.557292 404.223958 L 141.598958 397.447917 L 143.333333 397.447917 L 143.380208 393.5 L 148.973958 393.5 L 149.020833 391.729167 L 149.494792 391.729167 L 149.541667 391.40625 L 177.963542 391.40625 L 178.010417 390.9375 L 179.265625 390.9375 L 179.3125 392.354167 L 181.609375 392.354167 L 181.65625 406.145833 L 183.041667 406.145833 L 183.088542 195.182292 L 183.348958 195.182292 L 183.390625 195.145833 L 183.432292 146.744792 L 183.479167 146.744792 L 183.520833 192.614583 L 183.692708 192.614583 L 183.739583 187.984375 L 184.130208 187.984375 L 184.171875 194.03125 L 184.260417 194.03125 L 184.302083 144.84375 L 184.822917 144.84375 L 184.864583 145.911458 L 185.041667 145.911458 L 185.083333 143.432292 L 188.119792 143.432292 L 188.161458 492.234375 L 188.291667 492.234375 L 188.338542 500.838542 L 189.421875 500.838542 L 189.463542 500.765625 L 189.770833 500.765625 L 189.8125 492.239583 L 190.552083 492.239583 L 190.59375 491.401042 L 192.635417 491.401042 L 192.677083 490.244792 L 192.765625 490.244792 L 192.807292 493.697917 L 192.895833 493.697917 L 192.9375 496.177083 L 195.239583 496.177083 L 195.28125 499.911458 L 195.760417 499.911458 L 195.802083 499.177083 L 196.104167 499.177083 L 196.151042 497.739583 L 197.453125 497.739583 L 197.494792 498.239583 L 197.927083 498.239583 L 197.96875 496.177083 L 199.489583 496.177083 L 199.53125 496.578125 L 199.921875 496.578125 L 199.96875 498.583333 L 201.354167 498.583333 L 201.401042 496.932292 L 201.744792 496.932292 L 201.791667 496.46875 L 201.833333 496.46875 L 201.875 497.020833 L 201.921875 391.463542 L 202.916667 391.463542 L 202.963542 497.5 L 203.916667 497.5 L 203.958333 492.791667 L 209.90625 492.791667 L 209.947917 493.666667 L 210.166667 493.666667 L 210.208333 492.651042 L 211.208333 492.651042 L 211.25 496.989583 L 212.25 496.989583 L 212.291667 490.229167 L 212.552083 490.229167 L 212.59375 479.78125 L 212.770833 479.78125 L 212.8125 480.885417 L 212.942708 480.885417 L 212.984375 480.557292 L 213.03125 480.557292 L 213.072917 480.885417 L 213.203125 480.885417 L 213.244792 480.557292 L 215.026042 480.557292 L 215.067708 482.052083 L 215.635417 482.052083 L 215.677083 502.119792 L 216.848958 502.119792 L 216.890625 499.90625 L 219.453125 499.90625 L 219.494792 503.734375 L 222.40625 503.734375 L 222.447917 503.385417 L 226.567708 503.385417 L 226.614583 503.734375 L 226.744792 503.734375 L 226.786458 491.71875 L 227.005208 491.71875 L 227.046875 491.208333 L 227.697917 491.208333 L 227.739583 490.25 L 228.046875 490.25 L 228.088542 490.401042 L 228.651042 490.401042 L 228.697917 490.859375 L 229.348958 490.859375 L 229.390625 496.989583 L 229.692708 496.989583 L 229.739583 500.916667 L 232.557292 500.916667 L 232.604167 501.708333 L 233.776042 501.708333 L 233.817708 503.385417 L 239.546875 503.385417 L 239.588542 502.96875 L 239.760417 502.96875 L 239.807292 504.942708 L 239.848958 504.942708 L 239.890625 502.020833 L 240.067708 502.020833 L 240.109375 508.53125 L 241.369792 508.53125 L 241.411458 506.802083 L 241.973958 506.802083 L 242.020833 509.541667 L 242.494792 509.541667 L 242.541667 510.328125 L 243.015625 510.328125 L 243.0625 138.463542 L 243.104167 133.817708 L 243.364583 133.817708 L 243.40625 307.505208 L 243.494792 307.505208 L 243.536458 300.203125 L 243.583333 507.963542 L 244.145833 507.963542 L 244.1875 507.947917 L 244.666667 507.947917 L 244.708333 511.333333 L 245.359375 511.333333 L 245.40625 510.427083 L 252.739583 510.427083 L 252.78125 508.697917 L 252.869792 508.697917 L 252.911458 508.203125 L 255.864583 508.203125 L 255.90625 507.286458 L 255.947917 507.265625 L 257.380208 507.265625 L 257.427083 507.114583 L 266.0625 507.114583 L 266.104167 509.755208 L 266.755208 509.755208 L 266.796875 509.947917 L 272.265625 509.947917 L 272.3125 508.994792 L 272.526042 508.994792 L 272.572917 416.739583 L 273.958333 416.739583 L 274 451.260417 L 276.5625 451.260417 L 276.604167 505.958333 L 276.651042 505.958333 L 276.692708 506.947917 L 278.385417 506.947917 L 278.427083 507.875 L 279.255208 507.875 L 279.296875 507.505208 L 287.84375 507.505208 L 287.890625 498.479167 L 287.932292 498.479167 L 287.973958 498.166667 L 288.020833 498.166667 L 288.0625 497.640625 L 288.104167 497.640625 L 288.151042 497.671875 L 289.0625 497.671875 L 289.104167 504.364583 L 289.322917 504.364583 L 289.364583 504.947917 L 289.583333 504.947917 L 289.625 505.515625 L 289.927083 505.515625 L 289.973958 507.505208 L 291.098958 507.505208 L 291.145833 507.979167 L 291.796875 507.979167 L 291.838542 504.447917 L 292.578125 504.447917 L 292.619792 506.807292 L 294.052083 506.807292 L 294.09375 509.385417 L 298.348958 509.385417 L 298.390625 509.598958 L 298.651042 509.598958 L 298.697917 508.25 L 300.822917 508.25 L 300.864583 509.526042 L 336.494792 509.526042 L 336.536458 509.895833 L 343.395833 509.895833 L 343.4375 509.786458 L 350.03125 509.786458 L 350.078125 508.963542 L 366.869792 508.963542 L 366.916667 493.625 L 367.348958 493.625 L 367.390625 507.833333 L 375.984375 507.833333 L 376.026042 507.921875 L 401.890625 507.921875 L 401.9375 508.869792 L 406.494792 508.869792 L 406.536458 509.901042 L 426.671875 509.901042 L 426.713542 511.25 L 430.619792 511.25 L 430.666667 512.364583 L 511.125 512.364583 L 511.166667 511.197917 L 681.453125 511.197917 L 681.5 511.807292 L 684.578125 511.807292 L 684.625 511.635417 L 684.708333 511.635417 L 684.755208 509.369792 L 693.083333 509.369792 L 693.130208 509.020833 L 708.578125 509.020833 L 708.619792 510.182292 L 710.359375 510.182292 L 710.401042 510.208333 L 713.135417 510.208333 L 713.177083 510.229167 L 732.057292 510.229167 L 732.098958 511.463542 L 742.036458 511.463542 L 742.083333 511.395833 L 747.244792 511.395833 L 747.286458 511.432292 L 751.453125 511.432292 " transform="matrix(0.75,0,0,0.75,0,0)"/>
<path style="fill:none;stroke-width:1;stroke-linecap:butt;stroke-linejoin:miter;stroke:rgb(0%,0%,0%);stroke-opacity:1;stroke-miterlimit:10;" d="M 100.5 536.5 L 100.5 542.5 " transform="matrix(0.75,0,0,0.75,0,0)"/>
<path style="fill:none;stroke-width:1;stroke-linecap:butt;stroke-linejoin:miter;stroke:rgb(0%,0%,0%);stroke-opacity:1;stroke-miterlimit:10;" d="M 360.885417 536.5 L 360.885417 542.5 " transform="matrix(0.75,0,0,0.75,0,0)"/>
<path style="fill:none;stroke-width:1;stroke-linecap:butt;stroke-linejoin:miter;stroke:rgb(0%,0%,0%);stroke-opacity:1;stroke-miterlimit:10;" d="M 621.265625 536.5 L 621.265625 542.5 " transform="matrix(0.75,0,0,0.75,0,0)"/>
<path style="fill:none;stroke-width:1;stroke-linecap:butt;stroke-linejoin:miter;stroke:rgb(0%,0%,0%);stroke-opacity:1;stroke-miterlimit:10;" d="M 67.5 513.317708 L 61.5 513.317708 " transform="matrix(0.75,0,0,0.75,0,0)"/>
<path style="fill:none;stroke-width:1;stroke-linecap:butt;stroke-linejoin:miter;stroke:rgb(0%,0%,0%);stroke-opacity:1;stroke-miterlimit:10;" d="M 67.5 400.244792 L 61.5 400.244792 " transform="matrix(0.75,0,0,0.75,0,0)"/>
<path style="fill:none;stroke-width:1;stroke-linecap:butt;stroke-linejoin:miter;stroke:rgb(0%,0%,0%);stroke-opacity:1;stroke-miterlimit:10;" d="M 67.5 287.166667 L 61.5 287.166667 " transform="matrix(0.75,0,0,0.75,0,0)"/>
<path style="fill:none;stroke-width:1;stroke-linecap:butt;stroke-linejoin:miter;stroke:rgb(0%,0%,0%);stroke-opacity:1;stroke-miterlimit:10;" d="M 67.5 174.088542 L 61.5 174.088542 " transform="matrix(0.75,0,0,0.75,0,0)"/>
<path style="fill:none;stroke-width:1;stroke-linecap:butt;stroke-linejoin:miter;stroke:rgb(0%,0%,0%);stroke-opacity:1;stroke-miterlimit:10;" d="M 67.5 61.010417 L 61.5 61.010417 " transform="matrix(0.75,0,0,0.75,0,0)"/>
<path style="fill:none;stroke-width:1;stroke-linecap:butt;stroke-linejoin:miter;stroke:rgb(0%,0%,0%);stroke-opacity:1;stroke-miterlimit:10;" d="M 67.5 536 L 784.5 536 " transform="matrix(0.75,0,0,0.75,0,0)"/>
<path style="fill:none;stroke-width:1;stroke-linecap:butt;stroke-linejoin:miter;stroke:rgb(0%,0%,0%);stroke-opacity:1;stroke-miterlimit:10;" d="M 68 536.5 L 68 15.5 " transform="matrix(0.75,0,0,0.75,0,0)"/>
</g>
</svg>
